<svg width="20" height="20" viewBox="0 0 20 20" fill="none" xmlns="http://www.w3.org/2000/svg">
<g clip-path="url(#clip0_67_956)">
<path fill-rule="evenodd" clip-rule="evenodd" d="M5.51943 7.50355C5.6943 7.2144 6.07233 7.12065 6.36378 7.29413L6.667 7.47464C7.60318 8.03191 8.26667 8.42603 8.82264 8.68534C9.36599 8.93877 9.76079 9.04056 10.1499 9.04056C10.5391 9.04056 10.9339 8.93878 11.4772 8.68534C12.0332 8.42603 12.6967 8.03191 13.6328 7.47464L13.936 7.29413C14.2275 7.12065 14.6056 7.2144 14.7804 7.50355C14.9553 7.79271 14.8608 8.16775 14.5693 8.34124L14.238 8.53847C13.3362 9.07527 12.6198 9.50177 12.0009 9.79044C11.3629 10.088 10.7835 10.2617 10.1499 10.2617C9.51629 10.2617 8.93691 10.088 8.29898 9.79044C7.68007 9.50177 6.96362 9.07528 6.06184 8.53847L5.73052 8.34124C5.43907 8.16775 5.34457 7.79271 5.51943 7.50355Z" fill="#09090B"/>
<path fill-rule="evenodd" clip-rule="evenodd" d="M8.62996 3.5H11.6719C12.8849 3.49999 13.8459 3.49998 14.6101 3.58299C15.3938 3.66811 16.0439 3.8465 16.6013 4.25394C16.9163 4.48427 17.1946 4.76035 17.4267 5.0729C17.8374 5.62581 18.0172 6.27086 18.103 7.04837C18.1867 7.80655 18.1867 8.75999 18.1867 9.96338V10.0366C18.1867 11.24 18.1867 12.1934 18.103 12.9516C18.0172 13.7291 17.8374 14.3742 17.4267 14.9271C17.1946 15.2396 16.9163 15.5157 16.6013 15.7461C16.0439 16.1535 15.3938 16.3319 14.6101 16.417C13.8459 16.5 12.8849 16.5 11.6719 16.5H8.62998C7.41702 16.5 6.456 16.5 5.6918 16.417C4.90811 16.3319 4.25794 16.1535 3.70064 15.7461C3.3856 15.5157 3.10733 15.2396 2.87518 14.9271C2.46449 14.3742 2.28468 13.7291 2.19888 12.9516C2.11522 12.1934 2.11523 11.24 2.11523 10.0366V9.96336C2.11523 8.75999 2.11522 7.80654 2.19888 7.04837C2.28468 6.27086 2.46449 5.62581 2.87518 5.0729C3.10733 4.76035 3.3856 4.48427 3.70064 4.25394C4.25794 3.8465 4.90811 3.66811 5.6918 3.58299C6.456 3.49998 7.41702 3.49999 8.62996 3.5ZM5.82574 4.79686C5.14808 4.87047 4.74193 5.00953 4.43082 5.23699C4.21527 5.39458 4.02487 5.58348 3.86603 5.79733C3.63676 6.10599 3.49659 6.50893 3.42241 7.18126C3.34693 7.86523 3.34607 8.7518 3.34607 10C3.34607 11.2482 3.34693 12.1348 3.42241 12.8187C3.49659 13.4911 3.63676 13.894 3.86603 14.2027C4.02487 14.4165 4.21527 14.6054 4.43082 14.763C4.74193 14.9905 5.14808 15.1296 5.82574 15.2032C6.51515 15.278 7.40877 15.2789 8.66688 15.2789H11.635C12.8931 15.2789 13.7867 15.278 14.4762 15.2032C15.1538 15.1296 15.5599 14.9905 15.8711 14.763C16.0866 14.6054 16.277 14.4165 16.4358 14.2027C16.6652 13.894 16.8053 13.4911 16.8795 12.8187C16.9549 12.1348 16.9558 11.2482 16.9558 10C16.9558 8.7518 16.9549 7.86523 16.8795 7.18126C16.8053 6.50893 16.6652 6.10599 16.4358 5.79733C16.277 5.58348 16.0866 5.39458 15.8711 5.23699C15.5599 5.00953 15.1538 4.87047 14.4762 4.79686C13.7867 4.72198 12.8931 4.72113 11.635 4.72113H8.66688C7.40877 4.72113 6.51515 4.72198 5.82574 4.79686Z" fill="#09090B"/>
</g>
<defs>
<clipPath id="clip0_67_956">
<rect width="16.875" height="16.25" fill="white" transform="translate(1.875 1.875)"/>
</clipPath>
</defs>
</svg>
