<svg width="20" height="20" viewBox="0 0 20 20" fill="none" xmlns="http://www.w3.org/2000/svg">
<path fill-rule="evenodd" clip-rule="evenodd" d="M10 9.39062C8.76599 9.39062 7.76562 10.391 7.76562 11.625C7.76562 12.859 8.76599 13.8594 10 13.8594C11.234 13.8594 12.2343 12.859 12.2343 11.625C12.2343 10.391 11.234 9.39062 10 9.39062ZM8.98438 11.625C8.98438 11.0641 9.43908 10.6094 10 10.6094C10.5609 10.6094 11.0156 11.0641 11.0156 11.625C11.0156 12.1859 10.5609 12.6407 10 12.6407C9.43908 12.6407 8.98438 12.1859 8.98438 11.625Z" fill="#09090B"/>
<path fill-rule="evenodd" clip-rule="evenodd" d="M10 3.85937C8.53409 3.85937 7.30275 4.86371 6.95654 6.22183C7.31604 6.21415 7.72398 6.21415 8.18972 6.21416H11.8102C12.589 6.21415 13.2061 6.21415 13.7054 6.25005C14.2156 6.28673 14.6497 6.36317 15.0526 6.54023C15.9376 6.92912 16.6444 7.63595 17.0333 8.52093C17.2103 8.92387 17.2868 9.35788 17.3235 9.86811C17.3594 10.3674 17.3593 10.9845 17.3593 11.7631V11.8103C17.3593 12.589 17.3594 13.2061 17.3235 13.7054C17.2868 14.2157 17.2103 14.6496 17.0333 15.0526C16.6444 15.9376 15.9376 16.6444 15.0526 17.0333C14.6497 17.2104 14.2156 17.2868 13.7054 17.3235C13.2061 17.3594 12.589 17.3594 11.8102 17.3594H8.18976C7.41105 17.3594 6.7939 17.3594 6.29458 17.3235C5.78435 17.2868 5.35034 17.2104 4.94739 17.0333C4.06241 16.6444 3.35558 15.9376 2.9667 15.0526C2.78964 14.6496 2.7132 14.2157 2.67652 13.7054C2.64062 13.2061 2.64062 12.589 2.64063 11.8103V11.7633C2.64062 10.9846 2.64062 10.3674 2.67652 9.86811C2.7132 9.35788 2.78964 8.92387 2.9667 8.52093C3.35558 7.63595 4.06241 6.92912 4.94739 6.54023C5.18244 6.43696 5.42805 6.36791 5.6932 6.32102C6.0193 4.23588 7.82336 2.64062 10 2.64062C10.9137 2.64062 11.7635 2.92241 12.4648 3.40386C12.7422 3.59433 12.8128 3.97368 12.6222 4.25114C12.4318 4.52859 12.0524 4.5991 11.7749 4.40862C11.2702 4.0621 10.6597 3.85937 10 3.85937ZM6.38198 7.46566C5.93738 7.49763 5.65964 7.55848 5.43769 7.65601C4.83217 7.92209 4.34856 8.40571 4.08248 9.01122C3.98495 9.23317 3.9241 9.5109 3.89213 9.9555C3.85974 10.406 3.85937 10.9793 3.85937 11.7868C3.85937 12.5942 3.85974 13.1676 3.89213 13.618C3.9241 14.0626 3.98495 14.3404 4.08248 14.5623C4.34856 15.1678 4.83217 15.6514 5.43769 15.9175C5.65964 16.015 5.93738 16.0759 6.38198 16.1079C6.83247 16.1402 7.40583 16.1407 8.21324 16.1407H11.7867C12.5942 16.1407 13.1676 16.1402 13.618 16.1079C14.0626 16.0759 14.3403 16.015 14.5623 15.9175C15.1679 15.6514 15.6515 15.1678 15.9176 14.5623C16.0151 14.3404 16.0759 14.0626 16.1078 13.618C16.1403 13.1676 16.1406 12.5942 16.1406 11.7868C16.1406 10.9793 16.1403 10.406 16.1078 9.9555C16.0759 9.5109 16.0151 9.23317 15.9176 9.01122C15.6515 8.40571 15.1679 7.92209 14.5623 7.65601C14.3403 7.55848 14.0626 7.49763 13.618 7.46566C13.1676 7.43328 12.5942 7.43291 11.7867 7.43291H8.21324C7.40583 7.43291 6.83247 7.43328 6.38198 7.46566Z" fill="#09090B"/>
</svg>
