<svg width="20" height="20" viewBox="0 0 20 20" fill="none" xmlns="http://www.w3.org/2000/svg">
<g clip-path="url(#clip0_42_949)">
<path fill-rule="evenodd" clip-rule="evenodd" d="M6.25 5C6.25 2.84869 8.00568 1.25 10 1.25C11.9944 1.25 13.75 2.84869 13.75 5C13.75 7.15131 11.9944 8.75 10 8.75C8.00568 8.75 6.25 7.15131 6.25 5ZM10 2.57353C8.50622 2.57353 7.43422 3.74014 7.43422 5C7.43422 6.25986 8.50622 7.42648 10 7.42648C11.4938 7.42648 12.5659 6.25986 12.5659 5C12.5659 3.74014 11.4938 2.57353 10 2.57353Z" fill="#09090B"/>
<path fill-rule="evenodd" clip-rule="evenodd" d="M5.56607 11.0573C8.28793 9.33636 11.712 9.33636 14.4339 11.0573C16.0283 12.0654 17 13.8588 17 15.7906V16.2403C17 16.417 17.0001 16.5579 16.9866 16.6846C16.8722 17.7636 16.0484 18.6174 15.0029 18.7361C14.8801 18.75 14.7438 18.7499 14.573 18.7499H5.42695C5.25621 18.7499 5.11986 18.75 4.99712 18.7361C3.95154 18.6174 3.12771 17.7636 3.01335 16.6846C2.99992 16.5579 2.99995 16.417 3.00001 16.2402V15.7906C3.00001 13.8588 3.97172 12.0654 5.56607 11.0573ZM13.7491 12.2114C11.4475 10.7561 8.55249 10.7561 6.25088 12.2114C5.04635 12.973 4.31104 14.3288 4.31104 15.7906V16.2039C4.31104 16.434 4.31202 16.4942 4.3166 16.5374C4.36434 16.9879 4.70773 17.3417 5.14037 17.3908C5.18181 17.3956 5.23973 17.3965 5.46222 17.3965H14.5377C14.7603 17.3965 14.8182 17.3956 14.8597 17.3908C15.2923 17.3417 15.6356 16.9879 15.6834 16.5374C15.6879 16.4942 15.689 16.434 15.689 16.2039V15.7906C15.689 14.3288 14.9536 12.973 13.7491 12.2114Z" fill="#09090B"/>
</g>
<defs>
<clipPath id="clip0_42_949">
<rect width="17.5" height="17.5" fill="white" transform="translate(1.25 1.25)"/>
</clipPath>
</defs>
</svg>
